<svg width="176" height="34" viewBox="0 0 176 34" fill="none" xmlns="http://www.w3.org/2000/svg">
<path d="M6.5589 5.32603V11.2438H11.4904V12.1315H6.5589V31.0685C6.5589 31.463 6.82192 31.6603 7.34795 31.6603H10.5534V32.5479H0V31.6603H2.31781C2.77808 31.6603 3.00822 31.4301 3.00822 30.9699V12.8219C3.00822 12.3616 2.77808 12.1315 2.31781 12.1315H0V11.2438H3.05753C3.25479 7.43014 3.96164 4.60274 5.17808 2.76164C6.4274 0.920548 7.90685 0 9.61644 0C11.3589 0 12.6247 0.427398 13.4137 1.28219C14.2027 2.10411 14.5973 2.99178 14.5973 3.9452C14.5973 5.91781 14.0219 6.90411 12.8712 6.90411C11.9178 6.90411 11.1452 6.65753 10.5534 6.16438C11.0466 5.17808 11.2932 4.30685 11.2932 3.55069C11.2932 1.93973 10.6192 1.13425 9.27123 1.13425C7.46301 1.13425 6.5589 2.53151 6.5589 5.32603Z" fill="#454545"/>
<path d="M33.5751 10.9479V30.9699C33.5751 31.4301 33.8052 31.6603 34.2655 31.6603H36.5833V32.5479H34.1669C32.1943 32.5479 30.8134 32.6466 30.0244 32.8438V26.1863C28.9066 30.8219 26.4408 33.1397 22.6271 33.1397C20.9176 33.1397 19.471 32.5315 18.2874 31.3151C17.1039 30.0658 16.5121 28.1753 16.5121 25.6438V12.8219C16.5121 12.3616 16.2819 12.1315 15.8217 12.1315H13.5039V11.2438H15.9203C17.8929 11.2438 19.2737 11.1452 20.0628 10.9479V26.2849C20.0628 27.9616 20.4244 29.211 21.1477 30.0329C21.9039 30.8219 22.8902 31.2164 24.1066 31.2164C25.8491 31.2164 27.2628 30.1644 28.3477 28.0603C29.4655 25.9233 30.0244 22.8658 30.0244 18.8877V12.8219C30.0244 12.3616 29.7943 12.1315 29.334 12.1315H27.0162V11.2438H29.4326C31.4052 11.2438 32.786 11.1452 33.5751 10.9479Z" fill="#454545"/>
<path d="M52.5899 10.6521C53.8721 10.6521 54.9077 11.1945 55.6968 12.2795C56.5187 13.3644 56.9296 14.7288 56.9296 16.3726C56.9296 18.0164 56.2557 18.8384 54.9077 18.8384C54.1187 18.8384 53.4776 18.5918 52.9844 18.0986C53.4118 17.1452 53.6255 16.1753 53.6255 15.189C53.6255 13.4466 52.9022 12.5753 51.4557 12.5753C50.2392 12.5753 49.1543 13.5945 48.2009 15.6329C47.2803 17.6384 46.82 20.5644 46.82 24.411V30.9699C46.82 31.4301 47.0502 31.6603 47.5104 31.6603H50.8146V32.5479H40.2611V31.6603H42.5789C43.0392 31.6603 43.2694 31.4301 43.2694 30.9699V12.8219C43.2694 12.3616 43.0392 12.1315 42.5789 12.1315H40.2611V11.2438H42.6776C44.6502 11.2438 46.031 11.1452 46.82 10.9479V17.2603C47.3461 14.9918 48.1187 13.3315 49.1378 12.2795C50.157 11.1945 51.3077 10.6521 52.5899 10.6521Z" fill="#454545"/>
<path d="M79.4516 18.1479V31.0685C79.4516 31.463 79.6817 31.6603 80.142 31.6603H82.4598V32.5479H73.5831V31.6603H75.2105C75.6708 31.6603 75.9009 31.463 75.9009 31.0685V17.5069C75.9009 15.8301 75.5228 14.5973 74.7667 13.8082C74.0434 12.9863 73.0735 12.5753 71.8571 12.5753C70.1475 12.5753 68.7338 13.5945 67.616 15.6329C66.4982 17.6384 65.9393 20.5315 65.9393 24.3123V30.9699C65.9393 31.4301 66.1694 31.6603 66.6297 31.6603H68.2571V32.5479H59.3804V31.6603H61.6982C62.1584 31.6603 62.3886 31.463 62.3886 31.0685V12.8219C62.3886 12.3616 62.1584 12.1315 61.6982 12.1315H59.3804V11.2438H61.7968C63.7694 11.2438 65.1502 11.1452 65.9393 10.9479V17.6548C67.0571 12.9863 69.5228 10.6521 73.3365 10.6521C75.0461 10.6521 76.4927 11.2767 77.6762 12.526C78.8598 13.7425 79.4516 15.6164 79.4516 18.1479Z" fill="#454545"/>
<path d="M89.4059 30.9699V12.8219C89.4059 12.3616 89.1758 12.1315 88.7155 12.1315H86.3977V11.2438H88.8141C90.7867 11.2438 92.1676 11.1452 92.9566 10.9479V31.0685C92.9566 31.463 93.1867 31.6603 93.647 31.6603H95.9648V32.5479H86.3977V31.6603H88.7155C89.1758 31.6603 89.4059 31.4301 89.4059 30.9699ZM89.5045 5.81918C89.0771 5.3589 88.8634 4.8 88.8634 4.14247C88.8634 3.48493 89.0771 2.94247 89.5045 2.51507C89.9648 2.05479 90.5237 1.82466 91.1813 1.82466C91.8388 1.82466 92.3813 2.05479 92.8087 2.51507C93.2689 2.94247 93.4991 3.48493 93.4991 4.14247C93.4991 4.8 93.2689 5.3589 92.8087 5.81918C92.3813 6.24657 91.8388 6.46027 91.1813 6.46027C90.5237 6.46027 89.9648 6.24657 89.5045 5.81918Z" fill="#454545"/>
<path d="M104.228 6.01644H104.968V11.2438H109.899V12.1315H104.968V28.8493C104.968 30.6247 105.461 31.5123 106.447 31.5123C106.907 31.5123 107.302 31.2986 107.631 30.8712C107.992 30.4438 108.173 29.9507 108.173 29.3918C108.173 28.8329 108.124 28.3069 108.025 27.8137L108.962 27.6658C109.094 28.1589 109.159 28.7014 109.159 29.2932C109.159 30.4767 108.798 31.4137 108.074 32.1041C107.384 32.7945 106.463 33.1397 105.313 33.1397C104.162 33.1397 103.225 32.6795 102.502 31.7589C101.778 30.8055 101.417 29.3918 101.417 27.5178V12.8219C101.417 12.3616 101.187 12.1315 100.726 12.1315H98.4086V11.2438H100.825C101.877 11.2438 103.011 9.50137 104.228 6.01644Z" fill="#454545"/>
<path d="M131.964 10.9479V30.9699C131.964 31.4301 132.195 31.6603 132.655 31.6603H134.973V32.5479H132.556C130.584 32.5479 129.203 32.6466 128.414 32.8438V26.1863C127.296 30.8219 124.83 33.1397 121.016 33.1397C119.307 33.1397 117.86 32.5315 116.677 31.3151C115.493 30.0658 114.901 28.1753 114.901 25.6438V12.8219C114.901 12.3616 114.671 12.1315 114.211 12.1315H111.893V11.2438H114.31C116.282 11.2438 117.663 11.1452 118.452 10.9479V26.2849C118.452 27.9616 118.814 29.211 119.537 30.0329C120.293 30.8219 121.28 31.2164 122.496 31.2164C124.238 31.2164 125.652 30.1644 126.737 28.0603C127.855 25.9233 128.414 22.8658 128.414 18.8877V12.8219C128.414 12.3616 128.184 12.1315 127.723 12.1315H125.406V11.2438H127.822C129.795 11.2438 131.175 11.1452 131.964 10.9479Z" fill="#454545"/>
<path d="M150.979 10.6521C152.261 10.6521 153.297 11.1945 154.086 12.2795C154.908 13.3644 155.319 14.7288 155.319 16.3726C155.319 18.0164 154.645 18.8384 153.297 18.8384C152.508 18.8384 151.867 18.5918 151.374 18.0986C151.801 17.1452 152.015 16.1753 152.015 15.189C152.015 13.4466 151.292 12.5753 149.845 12.5753C148.629 12.5753 147.544 13.5945 146.59 15.6329C145.67 17.6384 145.209 20.5644 145.209 24.411V30.9699C145.209 31.4301 145.44 31.6603 145.9 31.6603H149.204V32.5479H138.65V31.6603H140.968C141.429 31.6603 141.659 31.4301 141.659 30.9699V12.8219C141.659 12.3616 141.429 12.1315 140.968 12.1315H138.65V11.2438H141.067C143.04 11.2438 144.42 11.1452 145.209 10.9479V17.2603C145.735 14.9918 146.508 13.3315 147.527 12.2795C148.546 11.1945 149.697 10.6521 150.979 10.6521Z" fill="#454545"/>
<path d="M167.485 10.6521C169.753 10.6521 171.545 11.4082 172.86 12.9205C174.175 14.4329 174.833 16.6521 174.833 19.5781C174.833 20.1699 174.8 20.8274 174.734 21.5507H161.271V21.8959C161.271 25.0192 161.83 27.4849 162.948 29.2932C164.098 31.0685 165.561 31.9562 167.337 31.9562C169.145 31.9562 170.624 31.4959 171.775 30.5753C172.926 29.6548 173.715 28.3397 174.142 26.6301L175.079 26.8274C174.685 28.8329 173.781 30.3945 172.367 31.5123C170.953 32.5973 169.326 33.1397 167.485 33.1397C164.624 33.1397 162.241 32.137 160.334 30.1315C158.46 28.126 157.523 25.3973 157.523 21.9452C157.523 18.4603 158.477 15.7151 160.383 13.7096C162.29 11.6712 164.657 10.6521 167.485 10.6521ZM171.43 17.9014C171.43 13.8575 169.918 11.8356 166.893 11.8356C165.381 11.8356 164.082 12.6575 162.997 14.3014C161.945 15.9452 161.386 18.0329 161.32 20.5644H171.233C171.364 19.4466 171.43 18.5589 171.43 17.9014Z" fill="#454545"/>
<rect x="87.0761" y="4.37744" width="5.57936" height="5.57936" transform="rotate(-45 87.0761 4.37744)" fill="#B78628"/>
</svg>
