<svg width="176" height="34" viewBox="0 0 176 34" fill="none" xmlns="http://www.w3.org/2000/svg">
<path d="M6.5589 5.77805V11.6959H11.4904V12.5835H6.5589V31.5205C6.5589 31.915 6.82192 32.1123 7.34795 32.1123H10.5534V33H0V32.1123H2.31781C2.77808 32.1123 3.00822 31.8822 3.00822 31.4219V13.2739C3.00822 12.8137 2.77808 12.5835 2.31781 12.5835H0V11.6959H3.05753C3.25479 7.88216 3.96164 5.05477 5.17808 3.21367C6.4274 1.37257 7.90685 0.452026 9.61644 0.452026C11.3589 0.452026 12.6247 0.879424 13.4137 1.73422C14.2027 2.55614 14.5973 3.44381 14.5973 4.39723C14.5973 6.36983 14.0219 7.35614 12.8712 7.35614C11.9178 7.35614 11.1452 7.10956 10.5534 6.61641C11.0466 5.63011 11.2932 4.75888 11.2932 4.00271C11.2932 2.39175 10.6192 1.58627 9.27123 1.58627C7.46301 1.58627 6.5589 2.98353 6.5589 5.77805Z" fill="#454545"/>
<path d="M33.5751 11.4V31.4219C33.5751 31.8822 33.8052 32.1123 34.2655 32.1123H36.5833V33H34.1669C32.1943 33 30.8134 33.0986 30.0244 33.2959V26.6383C28.9066 31.2739 26.4408 33.5918 22.6271 33.5918C20.9176 33.5918 19.471 32.9835 18.2874 31.7671C17.1039 30.5178 16.5121 28.6274 16.5121 26.0959V13.2739C16.5121 12.8137 16.2819 12.5835 15.8217 12.5835H13.5039V11.6959H15.9203C17.8929 11.6959 19.2737 11.5972 20.0628 11.4V26.737C20.0628 28.4137 20.4244 29.663 21.1477 30.4849C21.9039 31.2739 22.8902 31.6685 24.1066 31.6685C25.8491 31.6685 27.2628 30.6164 28.3477 28.5123C29.4655 26.3753 30.0244 23.3178 30.0244 19.3397V13.2739C30.0244 12.8137 29.7943 12.5835 29.334 12.5835H27.0162V11.6959H29.4326C31.4052 11.6959 32.786 11.5972 33.5751 11.4Z" fill="#454545"/>
<path d="M52.5899 11.1041C53.8721 11.1041 54.9077 11.6465 55.6968 12.7315C56.5187 13.8164 56.9296 15.1808 56.9296 16.8246C56.9296 18.4685 56.2557 19.2904 54.9077 19.2904C54.1187 19.2904 53.4776 19.0438 52.9844 18.5507C53.4118 17.5972 53.6255 16.6274 53.6255 15.6411C53.6255 13.8986 52.9022 13.0274 51.4557 13.0274C50.2392 13.0274 49.1543 14.0465 48.2009 16.0849C47.2803 18.0904 46.82 21.0164 46.82 24.863V31.4219C46.82 31.8822 47.0502 32.1123 47.5104 32.1123H50.8146V33H40.2611V32.1123H42.5789C43.0392 32.1123 43.2694 31.8822 43.2694 31.4219V13.2739C43.2694 12.8137 43.0392 12.5835 42.5789 12.5835H40.2611V11.6959H42.6776C44.6502 11.6959 46.031 11.5972 46.82 11.4V17.7123C47.3461 15.4438 48.1187 13.7835 49.1378 12.7315C50.157 11.6465 51.3077 11.1041 52.5899 11.1041Z" fill="#454545"/>
<path d="M79.4516 18.6V31.5205C79.4516 31.915 79.6817 32.1123 80.142 32.1123H82.4598V33H73.5831V32.1123H75.2105C75.6708 32.1123 75.9009 31.915 75.9009 31.5205V17.9589C75.9009 16.2822 75.5228 15.0493 74.7667 14.2602C74.0434 13.4383 73.0735 13.0274 71.8571 13.0274C70.1475 13.0274 68.7338 14.0465 67.616 16.0849C66.4982 18.0904 65.9393 20.9835 65.9393 24.7644V31.4219C65.9393 31.8822 66.1694 32.1123 66.6297 32.1123H68.2571V33H59.3804V32.1123H61.6982C62.1584 32.1123 62.3886 31.915 62.3886 31.5205V13.2739C62.3886 12.8137 62.1584 12.5835 61.6982 12.5835H59.3804V11.6959H61.7968C63.7694 11.6959 65.1502 11.5972 65.9393 11.4V18.1068C67.0571 13.4383 69.5228 11.1041 73.3365 11.1041C75.0461 11.1041 76.4927 11.7287 77.6762 12.9781C78.8598 14.1945 79.4516 16.0685 79.4516 18.6Z" fill="#454545"/>
<path d="M89.4059 31.4219V13.2739C89.4059 12.8137 89.1758 12.5835 88.7155 12.5835H86.3977V11.6959H88.8141C90.7867 11.6959 92.1676 11.5972 92.9566 11.4V31.5205C92.9566 31.915 93.1867 32.1123 93.647 32.1123H95.9648V33H86.3977V32.1123H88.7155C89.1758 32.1123 89.4059 31.8822 89.4059 31.4219ZM89.5045 6.2712C89.0771 5.81093 88.8634 5.25203 88.8634 4.59449C88.8634 3.93696 89.0771 3.39449 89.5045 2.96709C89.9648 2.50682 90.5237 2.27668 91.1813 2.27668C91.8388 2.27668 92.3813 2.50682 92.8087 2.96709C93.2689 3.39449 93.4991 3.93696 93.4991 4.59449C93.4991 5.25203 93.2689 5.81093 92.8087 6.2712C92.3813 6.6986 91.8388 6.9123 91.1813 6.9123C90.5237 6.9123 89.9648 6.6986 89.5045 6.2712Z" fill="#454545"/>
<path d="M104.228 6.46846H104.968V11.6959H109.899V12.5835H104.968V29.3013C104.968 31.0767 105.461 31.9644 106.447 31.9644C106.907 31.9644 107.302 31.7507 107.631 31.3233C107.992 30.8959 108.173 30.4027 108.173 29.8438C108.173 29.2849 108.124 28.7589 108.025 28.2657L108.962 28.1178C109.094 28.6109 109.159 29.1534 109.159 29.7452C109.159 30.9287 108.798 31.8657 108.074 32.5561C107.384 33.2465 106.463 33.5918 105.313 33.5918C104.162 33.5918 103.225 33.1315 102.502 32.2109C101.778 31.2575 101.417 29.8438 101.417 27.9698V13.2739C101.417 12.8137 101.187 12.5835 100.726 12.5835H98.4086V11.6959H100.825C101.877 11.6959 103.011 9.9534 104.228 6.46846Z" fill="#454545"/>
<path d="M131.964 11.4V31.4219C131.964 31.8822 132.195 32.1123 132.655 32.1123H134.973V33H132.556C130.584 33 129.203 33.0986 128.414 33.2959V26.6383C127.296 31.2739 124.83 33.5918 121.016 33.5918C119.307 33.5918 117.86 32.9835 116.677 31.7671C115.493 30.5178 114.901 28.6274 114.901 26.0959V13.2739C114.901 12.8137 114.671 12.5835 114.211 12.5835H111.893V11.6959H114.31C116.282 11.6959 117.663 11.5972 118.452 11.4V26.737C118.452 28.4137 118.814 29.663 119.537 30.4849C120.293 31.2739 121.28 31.6685 122.496 31.6685C124.238 31.6685 125.652 30.6164 126.737 28.5123C127.855 26.3753 128.414 23.3178 128.414 19.3397V13.2739C128.414 12.8137 128.184 12.5835 127.723 12.5835H125.406V11.6959H127.822C129.795 11.6959 131.175 11.5972 131.964 11.4Z" fill="#454545"/>
<path d="M150.979 11.1041C152.261 11.1041 153.297 11.6465 154.086 12.7315C154.908 13.8164 155.319 15.1808 155.319 16.8246C155.319 18.4685 154.645 19.2904 153.297 19.2904C152.508 19.2904 151.867 19.0438 151.374 18.5507C151.801 17.5972 152.015 16.6274 152.015 15.6411C152.015 13.8986 151.292 13.0274 149.845 13.0274C148.629 13.0274 147.544 14.0465 146.59 16.0849C145.67 18.0904 145.209 21.0164 145.209 24.863V31.4219C145.209 31.8822 145.44 32.1123 145.9 32.1123H149.204V33H138.65V32.1123H140.968C141.429 32.1123 141.659 31.8822 141.659 31.4219V13.2739C141.659 12.8137 141.429 12.5835 140.968 12.5835H138.65V11.6959H141.067C143.04 11.6959 144.42 11.5972 145.209 11.4V17.7123C145.735 15.4438 146.508 13.7835 147.527 12.7315C148.546 11.6465 149.697 11.1041 150.979 11.1041Z" fill="#454545"/>
<path d="M167.485 11.1041C169.753 11.1041 171.545 11.8602 172.86 13.3726C174.175 14.8849 174.833 17.1041 174.833 20.0301C174.833 20.6219 174.8 21.2794 174.734 22.0027H161.271V22.3479C161.271 25.4712 161.83 27.937 162.948 29.7452C164.098 31.5205 165.561 32.4082 167.337 32.4082C169.145 32.4082 170.624 31.9479 171.775 31.0274C172.926 30.1068 173.715 28.7918 174.142 27.0822L175.079 27.2794C174.685 29.2849 173.781 30.8465 172.367 31.9644C170.953 33.0493 169.326 33.5918 167.485 33.5918C164.624 33.5918 162.241 32.589 160.334 30.5835C158.46 28.5781 157.523 25.8493 157.523 22.3972C157.523 18.9123 158.477 16.1671 160.383 14.1616C162.29 12.1233 164.657 11.1041 167.485 11.1041ZM171.43 18.3534C171.43 14.3096 169.918 12.2876 166.893 12.2876C165.381 12.2876 164.082 13.1096 162.997 14.7534C161.945 16.3972 161.386 18.4849 161.32 21.0164H171.233C171.364 19.8986 171.43 19.0109 171.43 18.3534Z" fill="#454545"/>
<rect x="87.0761" y="4.82953" width="5.57936" height="5.57936" transform="rotate(-45 87.0761 4.82953)" fill="#B78628"/>
</svg>
