<svg width="80" height="75" viewBox="0 0 80 75" fill="none" xmlns="http://www.w3.org/2000/svg">
<g clip-path="url(#clip0_47_1538)">
<path d="M63.0878 47.8138C63.0878 46.6354 62.1405 45.6768 60.9761 45.6768H59.5774V45.3696L62.1078 45.0439C63.7302 44.836 65.176 43.9992 66.1756 42.6924C67.1752 41.3856 67.6148 39.761 67.4094 38.1178L63.3076 5.41398C63.3076 5.41133 63.3063 5.41133 63.3063 5.40868L63.2278 4.78506C63.2095 4.63809 63.1558 4.50833 63.0839 4.39049C62.2308 1.55704 59.4596 -0.335012 56.4621 0.0476359L9.50674 6.0813C6.5053 6.46659 4.29151 9.00213 4.16721 11.9627C4.12665 12.0951 4.10703 12.2341 4.12534 12.3784L4.20385 13.0047V13.0074L4.53618 15.6607L4.80832 17.8295V17.8308L5.42065 22.7126C2.37603 23.0648 0 25.6864 0 28.8641V67.9511C0 71.3672 2.7463 74.1463 6.12063 74.1463H53.4541C56.8298 74.1463 59.5761 71.3672 59.5761 67.9511V57.2542H60.9748C62.1392 57.2542 63.0878 56.2956 63.0878 55.1172V47.8138ZM64.6422 41.4888C63.9579 42.3826 62.9713 42.9519 61.8644 43.0949L59.5787 43.3888V34.9838C59.5787 31.5678 56.8324 28.7886 53.4568 28.7886H8.14078L6.85856 18.5551L62.1091 11.4556L65.4848 38.3628C65.6234 39.4855 65.3251 40.5951 64.6422 41.4888ZM61.4235 6.00715L61.8631 9.50792L6.61389 16.6074L6.17428 13.1053L61.4235 6.00715ZM9.7501 8.03029L56.7068 1.99663C58.4326 1.77551 60.0471 2.65732 60.8609 4.09788L6.241 11.1153C6.38362 10.5844 6.6296 10.0826 6.97239 9.63502C7.65668 8.74262 8.6432 8.17196 9.7501 8.03029ZM5.66793 24.6775L6.18344 28.7886H6.12063C4.50478 28.7886 3.03546 29.4308 1.94165 30.4701V28.8614C1.94165 26.686 3.57975 24.9105 5.66793 24.6775ZM57.6357 67.9498C57.6357 70.2828 55.7608 72.1801 53.4554 72.1801H6.12194C3.81787 72.1801 1.94295 70.2828 1.94295 67.9498V34.9838C1.94295 32.6508 3.81787 30.7535 6.12194 30.7535H53.4554C55.7608 30.7535 57.6357 32.6508 57.6357 34.9838V45.6768H50.492C49.3288 45.6768 48.3802 46.6354 48.3802 47.8138V55.1145C48.3802 56.2929 49.3275 57.2515 50.492 57.2515H57.6357V67.9498ZM61.1475 55.1159C61.1475 55.2112 61.0703 55.288 60.9774 55.288H50.4946C50.4004 55.288 50.3245 55.2099 50.3245 55.1159V47.8151C50.3245 47.7198 50.4017 47.643 50.4946 47.643H60.9774C61.0716 47.643 61.1475 47.7211 61.1475 47.8151V55.1159Z" fill="#454545"/>
<path d="M45.2756 39.0763C43.0278 38.5467 41.2366 36.7341 40.7133 34.4594C40.6099 34.0145 40.2187 33.7007 39.7673 33.7007C39.3159 33.7007 38.9234 34.0158 38.8213 34.4594C38.298 36.7341 36.5068 38.5467 34.259 39.0763C33.8194 39.1796 33.5093 39.5768 33.5093 40.0336C33.5093 40.4904 33.8207 40.8876 34.259 40.9909C36.5068 41.5205 38.298 43.3331 38.8213 45.6078C38.9234 46.0527 39.3159 46.3665 39.7673 46.3665C40.2187 46.3665 40.6099 46.0514 40.7133 45.6078C41.2379 43.3331 43.0291 41.5205 45.2756 40.9909C45.7152 40.8876 46.0253 40.4904 46.0253 40.0336C46.0266 39.5755 45.7152 39.1809 45.2756 39.0763ZM39.7686 42.8154C39.0882 41.6794 38.1423 40.7208 37.0184 40.0323C38.141 39.3438 39.0882 38.3865 39.7686 37.2491C40.449 38.3851 41.3962 39.3438 42.5188 40.0323C41.3962 40.7221 40.4477 41.6807 39.7686 42.8154Z" fill="#454545"/>
<path d="M74.3962 63.6349C72.1484 63.1053 70.3572 61.2927 69.8339 59.018C69.7305 58.5731 69.3393 58.2593 68.8879 58.2593C68.4365 58.2593 68.044 58.5744 67.9419 59.018C67.4186 61.2927 65.6274 63.1053 63.3796 63.6349C62.94 63.7382 62.6299 64.1354 62.6299 64.5922C62.6299 65.049 62.9413 65.4462 63.3796 65.5495C65.6274 66.0791 67.4186 67.8917 67.9419 70.1664C68.044 70.6113 68.4365 70.9251 68.8879 70.9251C69.3393 70.9251 69.7305 70.6099 69.8339 70.1664C70.3585 67.8917 72.1497 66.0791 74.3962 65.5495C74.8358 65.4462 75.1459 65.049 75.1459 64.5922C75.1472 64.134 74.8371 63.7395 74.3962 63.6349ZM68.8892 67.374C68.2088 66.238 67.2629 65.2793 66.139 64.5908C67.2616 63.9023 68.2088 62.9451 68.8892 61.8077C69.5696 62.9437 70.5168 63.9023 71.6394 64.5908C70.5168 65.2807 69.5683 66.2393 68.8892 67.374Z" fill="#454545"/>
<path d="M79.2488 18.4479C77.0009 17.9183 75.2098 16.1056 74.6864 13.8309C74.583 13.3861 74.1918 13.0723 73.7404 13.0723C73.289 13.0723 72.8965 13.3874 72.7945 13.8309C72.2711 16.1056 70.4799 17.9183 68.2321 18.4479C67.7925 18.5512 67.4824 18.9484 67.4824 19.4052C67.4824 19.862 67.7938 20.2592 68.2321 20.3624C70.4799 20.8921 72.2711 22.7047 72.7945 24.9794C72.8965 25.4243 73.289 25.738 73.7404 25.738C74.1918 25.738 74.583 25.4229 74.6864 24.9794C75.2111 22.7047 77.0022 20.8921 79.2488 20.3624C79.6884 20.2592 79.9985 19.862 79.9985 19.4052C79.9998 18.947 79.6884 18.5525 79.2488 18.4479ZM73.7417 22.187C73.0614 21.0509 72.1154 20.0923 70.9915 19.4038C72.1141 18.7153 73.0614 17.758 73.7417 16.6207C74.4221 17.7567 75.3694 18.7153 76.492 19.4038C75.3694 20.0937 74.4208 21.0523 73.7417 22.187Z" fill="#454545"/>
</g>
<defs>
<clipPath id="clip0_47_1538">
<rect width="80" height="74.1463" fill="white"/>
</clipPath>
</defs>
</svg>
