<svg width="80" height="89" viewBox="0 0 80 89" fill="none" xmlns="http://www.w3.org/2000/svg">
<g clip-path="url(#clip0_47_1468)">
<path d="M68.6668 74.7354H11.8668C11.0668 74.7354 10.5334 74.2063 10.5334 73.4126C10.5334 72.619 11.0668 72.0898 11.8668 72.0898H68.8001C69.6001 72.0898 70.1335 72.619 70.1335 73.4126C70.1335 74.2063 69.4668 74.7354 68.6668 74.7354Z" fill="#454545"/>
<path d="M73.8667 69.7092C73.0667 69.7092 72.5334 69.1801 72.5334 68.3864V65.2118C72.5334 57.143 65.7334 50.5293 57.4667 50.5293H22.5334C14.2667 50.5293 7.46672 57.143 7.46672 65.2118V68.3864C7.46672 69.1801 6.93338 69.7092 6.13338 69.7092C5.33338 69.7092 4.80005 69.1801 4.80005 68.3864V65.2118C4.80005 55.688 12.8 47.8838 22.5334 47.8838H57.4667C67.2001 47.8838 75.2001 55.688 75.2001 65.2118V68.3864C75.2001 69.1801 74.5334 69.7092 73.8667 69.7092Z" fill="#454545"/>
<path d="M73.8667 88.8887H6.26668C5.46668 88.8887 4.93335 88.3596 4.93335 87.5659C4.93335 86.7723 5.46668 86.2432 6.26668 86.2432H73.8667C74.6667 86.2432 75.2 86.7723 75.2 87.5659C75.2 88.3596 74.5333 88.8887 73.8667 88.8887Z" fill="#454545"/>
<path d="M68.6667 74.7354H11.4667C10.6667 74.7354 10.1333 74.2063 10.1333 73.4126C10.1333 72.619 10.6667 72.0898 11.4667 72.0898H68.6667C69.4667 72.0898 70 72.619 70 73.4126C70 74.2063 69.3334 74.7354 68.6667 74.7354Z" fill="#454545"/>
<path d="M20.8 63.0954C19.8667 63.0954 19.0667 62.3018 19.0667 61.3758C19.0667 60.4499 19.8667 59.6562 20.8 59.6562C21.7333 59.6562 22.5333 60.4499 22.5333 61.3758C22.5333 62.3018 21.7333 63.0954 20.8 63.0954Z" fill="#454545"/>
<path d="M59.1999 63.0954C58.2666 63.0954 57.4666 62.3018 57.4666 61.3758C57.4666 60.4499 58.2666 59.6562 59.1999 59.6562C60.1332 59.6562 60.9332 60.4499 60.9332 61.3758C60.9332 62.3018 60.1332 63.0954 59.1999 63.0954Z" fill="#454545"/>
<path d="M39.9999 63.0954C39.0666 63.0954 38.2666 62.3018 38.2666 61.3758C38.2666 60.4499 39.0666 59.6562 39.9999 59.6562C40.9333 59.6562 41.7333 60.4499 41.7333 61.3758C41.7333 62.3018 40.9333 63.0954 39.9999 63.0954Z" fill="#454545"/>
<path d="M20.6666 50.6612C19.8666 50.6612 19.3333 50.1321 19.3333 49.3384V20.5024C19.3333 19.7088 19.8666 19.1797 20.6666 19.1797C21.4666 19.1797 21.9999 19.7088 21.9999 20.5024V49.3384C21.9999 50.1321 21.3333 50.6612 20.6666 50.6612Z" fill="#454545"/>
<path d="M30.2666 21.8254H11.0665C10.6665 21.8254 10.2665 21.6931 9.99988 21.2963C9.73322 21.0317 9.59988 20.5026 9.73322 20.2381L14.2666 1.0582C14.3999 0.396825 14.9332 0 15.5999 0H25.8666C26.5332 0 27.0666 0.396825 27.1999 1.0582L31.7332 20.2381C31.8666 20.6349 31.7332 21.0317 31.4666 21.2963C31.0666 21.6931 30.6666 21.8254 30.2666 21.8254ZM12.6665 19.1799H28.6666L24.7999 2.6455H16.5332L12.6665 19.1799Z" fill="#454545"/>
<path d="M67.8667 41.0053H41.0667C39.7333 41.0053 38.6667 39.9471 38.6667 38.6244V2.51328C38.6667 1.19053 39.7333 0.132324 41.0667 0.132324H67.8667C69.2 0.132324 70.2667 1.19053 70.2667 2.51328V38.6244C70.2667 39.9471 69.2 41.0053 67.8667 41.0053ZM41.3333 38.3598H67.6V2.64555H41.3333V38.3598Z" fill="#454545"/>
<path d="M6.13333 88.8889C2.66667 88.8889 0 86.1111 0 82.5397V73.4127C0 69.9735 2.8 67.0635 6.13333 67.0635C9.6 67.0635 12.2667 69.8413 12.2667 73.4127V82.5397C12.4 86.1111 9.6 88.8889 6.13333 88.8889ZM6.13333 69.709C4.26667 69.709 2.66667 71.2963 2.66667 73.4127V82.5397C2.66667 84.5238 4.26667 86.2434 6.13333 86.2434C8.13333 86.2434 9.6 84.6561 9.6 82.5397V73.4127C9.73333 71.4286 8.13333 69.709 6.13333 69.709Z" fill="#454545"/>
<path d="M73.8667 88.8889C70.4 88.8889 67.7333 86.1111 67.7333 82.5397V73.4127C67.7333 69.9735 70.5333 67.0635 73.8667 67.0635C77.2 67.0635 80 69.8413 80 73.4127V82.5397C80 86.1111 77.2 88.8889 73.8667 88.8889ZM73.8667 69.709C71.8667 69.709 70.4 71.2963 70.4 73.4127V82.5397C70.4 84.5238 72 86.2434 73.8667 86.2434C75.7333 86.2434 77.3333 84.6561 77.3333 82.5397V73.4127C77.3333 71.4286 75.7333 69.709 73.8667 69.709Z" fill="#454545"/>
<path d="M63.6 35.5821H45.3333C44.5333 35.5821 44 35.053 44 34.2593V6.74609C44 5.95244 44.5333 5.42334 45.3333 5.42334H63.6C64.4 5.42334 64.9333 5.95244 64.9333 6.74609V34.3916C64.9333 35.053 64.2667 35.5821 63.6 35.5821ZM46.6667 32.9366H62.2667V8.06884H46.6667V32.9366Z" fill="#454545"/>
</g>
<defs>
<clipPath id="clip0_47_1468">
<rect width="80" height="88.8889" fill="white"/>
</clipPath>
</defs>
</svg>
