<svg width="174" height="73" viewBox="0 0 174 73" fill="none" xmlns="http://www.w3.org/2000/svg">
<g clip-path="url(#clip0_49_1544)">
<path d="M80.1814 51.4053H1.40288C0.63075 51.4053 0 50.7733 0 49.9998C0 49.2262 0.63075 48.5942 1.40288 48.5942H80.1814C80.9535 48.5942 81.5843 49.2262 81.5843 49.9998C81.5843 50.7733 80.9535 51.4053 80.1814 51.4053Z" fill="#454545"/>
<path d="M58.3662 56.2317H56.115C55.3429 56.2317 54.7122 55.5998 54.7122 54.8262C54.7122 54.0526 55.3429 53.4207 56.115 53.4207H58.3662C59.1383 53.4207 59.769 54.0526 59.769 54.8262C59.769 55.6107 59.1383 56.2317 58.3662 56.2317Z" fill="#454545"/>
<path d="M66.3048 56.2317H64.0536C63.2815 56.2317 62.6508 55.5998 62.6508 54.8262C62.6508 54.0526 63.2815 53.4207 64.0536 53.4207H66.3048C67.0769 53.4207 67.7076 54.0526 67.7076 54.8262C67.7076 55.6107 67.0769 56.2317 66.3048 56.2317Z" fill="#454545"/>
<path d="M74.2329 56.2317H71.9927C71.2205 56.2317 70.5898 55.5998 70.5898 54.8262C70.5898 54.0526 71.2205 53.4207 71.9927 53.4207H74.2438C75.0159 53.4207 75.6467 54.0526 75.6467 54.8262C75.6358 55.6107 75.005 56.2317 74.2329 56.2317Z" fill="#454545"/>
<path d="M31.6896 72.1829C31.5808 72.1829 31.483 72.172 31.3742 72.1502C30.6239 71.9759 30.1562 71.2241 30.3302 70.4614L32.9076 59.348C33.0816 58.5962 33.832 58.1277 34.5932 58.302C35.3436 58.4764 35.8112 59.2281 35.6372 59.9908L33.0599 71.1043C32.8967 71.7471 32.3204 72.1829 31.6896 72.1829Z" fill="#454545"/>
<path d="M49.8947 72.1827C49.2313 72.1827 48.6441 71.7142 48.5245 71.0387L46.4147 59.9253C46.2733 59.1626 46.7736 58.4326 47.524 58.2801C48.2852 58.1384 49.0138 58.6396 49.1661 59.3914L51.2758 70.5048C51.4172 71.2675 50.917 71.9975 50.1666 72.1501C50.0687 72.1719 49.9817 72.1827 49.8947 72.1827Z" fill="#454545"/>
<path d="M56.3327 72.1829H25.2519C24.4798 72.1829 23.8491 71.5509 23.8491 70.7774C23.8491 70.0038 24.4798 69.3718 25.2519 69.3718H56.3327C57.1048 69.3718 57.7356 70.0038 57.7356 70.7774C57.7356 71.5509 57.1048 72.1829 56.3327 72.1829Z" fill="#454545"/>
<path d="M77.4515 61.0694H4.14312C1.85937 61.0694 0.0106201 59.2063 0.0106201 56.9291V11.996C0.0106201 9.70795 1.87025 7.85571 4.14312 7.85571H77.4515C79.7353 7.85571 81.584 9.71885 81.584 11.996V56.9182C81.584 59.2063 79.7353 61.0694 77.4515 61.0694ZM4.14312 10.6559C3.40362 10.6559 2.8055 11.2551 2.8055 11.996V56.9182C2.8055 57.6591 3.40362 58.2584 4.14312 58.2584H77.4515C78.191 58.2584 78.7891 57.6591 78.7891 56.9182V11.996C78.7891 11.2551 78.191 10.6559 77.4515 10.6559H4.14312Z" fill="#454545"/>
<path d="M50.9601 35.2903H30.9175C30.3194 35.2903 29.7974 34.9199 29.6016 34.3533L24.2729 19.2848C24.262 19.263 24.262 19.2412 24.2511 19.2194L22.9679 15.5803H18.3569C17.5847 15.5803 16.954 14.9484 16.954 14.1748C16.954 13.4012 17.5847 12.7693 18.3569 12.7693H23.9575C24.5556 12.7693 25.0776 13.1397 25.2734 13.7063L26.5675 17.3781H54.5597C54.9839 17.3781 55.3971 17.5742 55.6581 17.912C55.9191 18.2497 56.017 18.6856 55.9191 19.1105L52.3304 34.2117C52.1672 34.8436 51.6017 35.2903 50.9601 35.2903ZM31.9071 32.4793H49.8509L52.7762 20.1782H27.5571L31.9071 32.4793Z" fill="#454545"/>
<path d="M40.0633 35.2909C39.2912 35.2909 38.6604 34.659 38.6604 33.8854V18.7842C38.6604 18.0106 39.2912 17.3787 40.0633 17.3787C40.8354 17.3787 41.4662 18.0106 41.4662 18.7842V33.8854C41.4662 34.659 40.8354 35.2909 40.0633 35.2909Z" fill="#454545"/>
<path d="M45.0118 35.1597C44.9248 35.1597 44.8378 35.1488 44.7508 35.1379C43.9895 34.9963 43.4893 34.2663 43.6306 33.5036L46.4038 18.653C46.5451 17.8903 47.2738 17.3891 48.035 17.5308C48.7963 17.6724 49.2965 18.4024 49.1552 19.1651L46.382 34.0157C46.2515 34.6912 45.6643 35.1597 45.0118 35.1597Z" fill="#454545"/>
<path d="M35.1153 35.1601C34.452 35.1601 33.8647 34.6916 33.7451 34.016L30.972 19.1763C30.8306 18.4137 31.3308 17.6837 32.0921 17.542C32.8533 17.4004 33.582 17.9016 33.7233 18.6642L36.4965 33.5148C36.6378 34.2775 36.1376 35.0075 35.3763 35.1492C35.2893 35.1601 35.2023 35.1601 35.1153 35.1601Z" fill="#454545"/>
<path d="M52.6896 27.74H28.2426C27.4705 27.74 26.8397 27.1081 26.8397 26.3345C26.8397 25.5609 27.4705 24.929 28.2426 24.929H52.6896C53.4617 24.929 54.0925 25.5609 54.0925 26.3345C54.0925 27.1081 53.4617 27.74 52.6896 27.74Z" fill="#454545"/>
<path d="M51.3085 40.695H30.9396C28.6776 40.695 26.8397 38.8536 26.8397 36.5873C26.8397 34.3211 28.6776 32.4797 30.9396 32.4797C31.7117 32.4797 32.3425 33.1117 32.3425 33.8853C32.3425 34.6588 31.7117 35.2908 30.9396 35.2908C30.2218 35.2908 29.6455 35.8791 29.6455 36.5873C29.6455 37.3065 30.2327 37.8839 30.9396 37.8839H51.3085C52.0806 37.8839 52.7113 38.5159 52.7113 39.2894C52.7113 40.0739 52.0806 40.695 51.3085 40.695Z" fill="#454545"/>
<path d="M32.7557 46.4802C30.3958 46.4802 28.4709 44.5517 28.4709 42.1874C28.4709 39.823 30.3958 37.8945 32.7557 37.8945C35.1156 37.8945 37.0404 39.823 37.0404 42.1874C37.0404 44.5517 35.1156 46.4802 32.7557 46.4802ZM32.7557 40.6947C31.9401 40.6947 31.2658 41.3593 31.2658 42.1874C31.2658 43.0045 31.9292 43.6801 32.7557 43.6801C33.5713 43.6801 34.2456 43.0154 34.2456 42.1874C34.2456 41.3702 33.5713 40.6947 32.7557 40.6947Z" fill="#454545"/>
<path d="M46.7949 46.4802C44.4351 46.4802 42.5102 44.5517 42.5102 42.1874C42.5102 39.823 44.4351 37.8945 46.7949 37.8945C49.1548 37.8945 51.0797 39.823 51.0797 42.1874C51.0797 44.5517 49.1657 46.4802 46.7949 46.4802ZM46.7949 40.6947C45.9793 40.6947 45.3051 41.3593 45.3051 42.1874C45.3051 43.0045 45.9684 43.6801 46.7949 43.6801C47.6106 43.6801 48.2848 43.0154 48.2848 42.1874C48.2848 41.3702 47.6214 40.6947 46.7949 40.6947Z" fill="#454545"/>
<path fill-rule="evenodd" clip-rule="evenodd" d="M116.982 4.28189C115.329 4.28189 113.829 5.28428 113.187 6.82055L109.272 18.3807C108.293 21.2571 108.772 24.297 110.86 26.5305C111.773 27.5111 112.948 28.2302 114.264 28.6334V59.1517C114.264 62.1698 116.732 64.6431 119.745 64.6431H163.571C166.583 64.6431 169.052 62.1698 169.052 59.1517V28.5789C170.444 28.154 171.705 27.3586 172.684 26.1819C174.511 23.9919 175.033 20.952 173.935 18.2935L170.118 6.85324C169.487 5.31697 167.953 4.271 166.3 4.271L116.982 4.28189ZM116.982 7.02756H166.29C166.844 7.02756 167.334 7.35443 167.551 7.86652L171.401 19.3504C172.097 21.0392 171.771 23.0004 170.585 24.4277C169.389 25.855 167.627 26.4543 165.735 26.1056C164.006 25.7897 162.07 23.6541 162.07 22.107C162.07 21.6167 161.809 21.17 161.385 20.9194C160.961 20.6688 160.439 20.6688 160.015 20.9194C159.591 21.1591 159.33 21.6167 159.33 22.107C159.33 22.8697 158.884 23.8394 157.981 24.6674C157.057 25.5173 155.708 26.171 154.458 26.2255C151.978 26.3344 149.325 24.1117 149.325 22.107C149.325 21.6167 149.064 21.17 148.639 20.9194C148.215 20.6688 147.693 20.6688 147.269 20.9194C146.845 21.1591 146.584 21.6167 146.584 22.107C146.584 24.0682 143.996 26.2255 141.658 26.2255C139.233 26.2255 136.71 23.8503 136.71 22.107C136.71 21.6167 136.449 21.17 136.024 20.9194C135.6 20.6688 135.078 20.6688 134.654 20.9194C134.23 21.1591 133.969 21.6167 133.969 22.107C133.969 23.7195 131.283 26.2037 129.043 26.2255C127.803 26.2364 126.378 25.6153 125.4 24.7546C124.671 24.1117 124.182 23.4144 124.062 22.7716C124.029 22.5537 124.018 22.3903 124.018 22.1288C124.018 21.6385 123.757 21.1808 123.333 20.9411C122.909 20.7014 122.387 20.7014 121.963 20.9411C121.539 21.1808 121.278 21.6385 121.278 22.1288C121.278 23.7849 119.288 25.7352 117.591 26.1165C115.786 26.5197 113.981 25.8659 112.872 24.6674C111.425 23.1203 111.142 21.3988 111.871 19.2741L115.721 7.87741C115.938 7.35443 116.428 7.02756 116.982 7.02756ZM135.296 25.5173C136.677 27.5765 139.015 28.9711 141.647 28.9711C144.224 28.9711 146.562 27.6201 147.976 25.6153C149.433 27.7073 151.869 29.091 154.566 28.9711C156.578 28.884 158.449 27.9688 159.841 26.6831C160.134 26.4107 160.406 26.1056 160.656 25.7788C161.733 27.3041 163.332 28.4482 165.246 28.7968C165.604 28.8622 165.963 28.9058 166.311 28.9167V59.13C166.311 60.6771 165.115 61.8756 163.571 61.8756H119.745C118.2 61.8756 117.004 60.6771 117.004 59.13V28.9494C117.396 28.9276 117.787 28.8731 118.179 28.7859C119.908 28.4046 121.452 27.3695 122.572 25.7352C122.877 26.1274 123.214 26.487 123.583 26.8138C125.052 28.1104 127.009 28.9929 129.064 28.9711C131.642 28.9494 133.904 27.5329 135.296 25.5173ZM123.844 31.7168C123.486 31.7168 123.138 31.8585 122.877 32.12L120.147 34.8656C119.799 35.2143 119.668 35.7155 119.788 36.1949C119.919 36.6634 120.288 37.0338 120.756 37.1646C121.224 37.2953 121.735 37.1537 122.083 36.805L124.823 34.0594C125.171 33.7107 125.302 33.2095 125.182 32.7301C125.052 32.2616 124.682 31.8911 124.214 31.7604C124.084 31.7277 123.964 31.7168 123.844 31.7168ZM132.066 31.7168C131.707 31.7168 131.359 31.8585 131.098 32.12L120.147 43.0917C119.799 43.4404 119.668 43.9416 119.788 44.421C119.919 44.8895 120.288 45.26 120.756 45.3907C121.224 45.5214 121.735 45.3798 122.083 45.0312L133.034 34.0594C133.382 33.7107 133.512 33.2095 133.393 32.7301C133.262 32.2616 132.892 31.8911 132.425 31.7604C132.305 31.7277 132.186 31.7168 132.066 31.7168ZM162.179 45.4343C161.82 45.4343 161.472 45.5759 161.211 45.8374L150.26 56.8092C149.912 57.1579 149.781 57.6591 149.901 58.1385C150.031 58.607 150.401 58.9774 150.869 59.1082C151.336 59.2389 151.848 59.0973 152.196 58.7486L163.147 47.7768C163.495 47.4282 163.625 46.927 163.506 46.4476C163.375 45.9791 163.005 45.6086 162.538 45.4779C162.418 45.4452 162.298 45.4343 162.179 45.4343ZM162.179 53.6604C161.82 53.6604 161.472 53.802 161.211 54.0635L158.47 56.8092C158.122 57.1579 157.992 57.6591 158.112 58.1385C158.242 58.607 158.612 58.9774 159.079 59.1082C159.547 59.2389 160.058 59.0973 160.406 58.7486L163.147 56.0029C163.495 55.6543 163.625 55.1531 163.506 54.6737C163.375 54.2052 163.005 53.8347 162.538 53.704C162.418 53.6713 162.298 53.6604 162.179 53.6604Z" fill="#454545"/>
<path d="M86.7773 73C86.7014 73 86.6255 72.9929 86.5497 72.9716C86.0876 72.844 85.8186 72.3546 85.9427 71.8795L104.876 0.655187C105 0.180027 105.483 -0.0965581 105.938 0.0310967C106.4 0.158752 106.669 0.648095 106.545 1.12325L87.605 72.3475C87.5015 72.7447 87.1566 73 86.7773 73Z" fill="#454545"/>
</g>
<defs>
<clipPath id="clip0_49_1544">
<rect width="174" height="73" fill="white"/>
</clipPath>
</defs>
</svg>
