<svg width="80" height="77" viewBox="0 0 80 77" fill="none" xmlns="http://www.w3.org/2000/svg">
<g clip-path="url(#clip0_49_1583)">
<path d="M61.6668 40.1641C56.8052 40.1641 52.1418 42.1037 48.7035 45.5561C45.2652 49.0085 43.3335 53.691 43.3335 58.5726C43.3335 63.4542 45.2652 68.1367 48.7035 71.5891C52.1418 75.0415 56.8052 76.9811 61.6668 76.9811C66.5285 76.9811 71.1918 75.0415 74.6302 71.5891C78.0685 68.1367 80.0002 63.4542 80.0002 58.5726C80.0002 53.691 78.0685 49.0085 74.6302 45.5561C71.1918 42.1037 66.5285 40.1641 61.6668 40.1641ZM61.6668 73.6341C57.6885 73.6341 53.8735 72.0476 51.0602 69.2228C48.2468 66.3996 46.6668 62.5672 46.6668 58.5726C46.6668 54.5779 48.2468 50.7473 51.0602 47.9224C53.8735 45.0975 57.6885 43.5111 61.6668 43.5111C65.6452 43.5111 69.4602 45.0975 72.2735 47.9224C75.0868 50.7473 76.6668 54.5779 76.6668 58.5726C76.6668 62.5672 75.0868 66.3979 72.2735 69.2228C69.4602 72.0476 65.6452 73.6341 61.6668 73.6341Z" fill="#454545"/>
<path d="M66.9668 52.7487L58.8835 60.8485L56.3668 58.3215C56.0535 58.0052 55.6285 57.8261 55.1835 57.8261C54.7385 57.8261 54.3135 58.0035 54.0001 58.3215C53.3535 58.9742 53.3535 60.0285 54.0001 60.6811L57.7168 64.3963C58.3668 65.0456 59.4168 65.0456 60.0668 64.3963L69.3335 55.1084C69.9818 54.4523 69.9785 53.3913 69.3251 52.7403C68.6718 52.0894 67.6151 52.0927 66.9668 52.7487Z" fill="#454545"/>
<path d="M38.8833 66.9401H6.66667C5.78333 66.9401 4.935 66.587 4.31 65.9594C3.68333 65.3319 3.33333 64.4817 3.33333 63.5931V26.776H51.6667C52.5867 26.776 53.3333 26.0263 53.3333 25.1025C53.3333 24.1788 52.5867 23.429 51.6667 23.429H3.33333V13.388C3.33333 12.5011 3.685 11.6493 4.31 11.0217C4.935 10.3941 5.78167 10.041 6.66667 10.041H14.1667V11.7145C14.1667 13.0466 14.6933 14.3235 15.6317 15.264C16.5683 16.2062 17.84 16.735 19.1667 16.735H20.8333C22.16 16.735 23.4317 16.2062 24.3683 15.264C25.3067 14.3235 25.8333 13.0466 25.8333 11.7145V10.041H47.5V11.7145C47.5 13.0466 48.0267 14.3235 48.965 15.264C49.9033 16.2045 51.175 16.735 52.5017 16.735H54.1683C55.495 16.735 56.7667 16.2062 57.7033 15.264C58.64 14.3235 59.1667 13.0466 59.1667 11.7145V10.041H66.6667C67.55 10.041 68.3983 10.3941 69.0233 11.0217C69.65 11.6493 70 12.5011 70 13.388V23.429H62.5333C61.6133 23.429 60.8667 24.1788 60.8667 25.1025C60.8667 26.0263 61.6133 26.776 62.5333 26.776H70V36.7167C70 37.6404 70.7467 38.3902 71.6667 38.3902C72.5867 38.3902 73.3333 37.6404 73.3333 36.7167V13.388C73.3333 11.6124 72.6317 9.91048 71.38 8.65368C70.13 7.40023 68.435 6.69401 66.6667 6.69401H59.1667V5.02051C59.1667 3.6884 58.64 2.41152 57.7017 1.46934C56.765 0.528827 55.4933 0 54.1667 0H52.5C51.1733 0 49.9017 0.528827 48.965 1.47101C48.0267 2.41152 47.5 3.6884 47.5 5.02051V6.69401H25.8333V5.02051C25.8333 3.6884 25.3067 2.41152 24.3683 1.46934C23.4317 0.528827 22.16 0 20.8333 0H19.1667C17.84 0 16.5683 0.528827 15.6317 1.47101C14.6933 2.41152 14.1667 3.6884 14.1667 5.02051V6.69401H6.66667C4.89833 6.69401 3.20333 7.39856 1.95167 8.65368C0.701667 9.91048 0 11.6124 0 13.388V63.5931C0 65.3687 0.701667 67.0706 1.95167 68.3275C3.20333 69.5826 4.89833 70.2871 6.66667 70.2871H38.8833C39.8033 70.2871 40.55 69.5374 40.55 68.6136C40.55 67.6898 39.8033 66.9401 38.8833 66.9401ZM50.8333 5.02051C50.8333 4.09674 51.58 3.34701 52.5 3.34701H54.1667C54.6083 3.34701 55.0333 3.52272 55.345 3.83734C55.6567 4.15196 55.8333 4.57703 55.8333 5.02051V11.7145C55.8333 12.158 55.6583 12.5847 55.345 12.8977C55.0317 13.2106 54.6083 13.388 54.1667 13.388H52.5C51.58 13.388 50.8333 12.6383 50.8333 11.7145V5.02051ZM17.5 5.02051C17.5 4.09674 18.2467 3.34701 19.1667 3.34701H20.8333C21.275 3.34701 21.7 3.52272 22.0117 3.83734C22.3233 4.15196 22.5 4.57703 22.5 5.02051V11.7145C22.5 12.158 22.325 12.5847 22.0117 12.8977C21.6983 13.2106 21.275 13.388 20.8333 13.388H19.1667C18.2467 13.388 17.5 12.6383 17.5 11.7145V5.02051Z" fill="#454545"/>
<path d="M40.0002 36.8172C40.0002 38.6664 38.5085 40.1642 36.6668 40.1642C34.8252 40.1642 33.3335 38.6664 33.3335 36.8172C33.3335 34.968 34.8252 33.4702 36.6668 33.4702C38.5085 33.4702 40.0002 34.9697 40.0002 36.8172Z" fill="#454545"/>
<path d="M20.0002 36.8172C20.0002 38.6664 18.5085 40.1642 16.6668 40.1642C14.8252 40.1642 13.3335 38.6664 13.3335 36.8172C13.3335 34.968 14.8252 33.4702 16.6668 33.4702C18.5085 33.4702 20.0002 34.9697 20.0002 36.8172Z" fill="#454545"/>
<path d="M20.0002 55.2254C20.0002 57.0746 18.5085 58.5724 16.6668 58.5724C14.8252 58.5724 13.3335 57.0746 13.3335 55.2254C13.3335 53.3762 14.8252 51.8784 16.6668 51.8784C18.5085 51.8784 20.0002 53.3779 20.0002 55.2254Z" fill="#454545"/>
</g>
<defs>
<clipPath id="clip0_49_1583">
<rect width="80" height="76.9811" fill="white"/>
</clipPath>
</defs>
</svg>
